<?xml version="1.0" encoding="UTF-8" standalone="no"?>
<!DOCTYPE svg PUBLIC "-//W3C//DTD SVG 20010904//EN"
              "http://www.w3.org/TR/2001/REC-SVG-20010904/DTD/svg10.dtd">

<svg xmlns="http://www.w3.org/2000/svg"
     width="57.3333in" height="43in"
     viewBox="0 0 4128 3096">
  <path id="Selection"
        fill="none" stroke="black" stroke-width="1"
        d="M 3034.00,421.11
           C 3034.00,421.11 3114.00,421.11 3114.00,421.11
             3114.00,421.11 3199.00,421.11 3199.00,421.11
             3199.00,421.11 3211.00,422.00 3211.00,422.00
             3211.00,422.00 3220.00,422.00 3220.00,422.00
             3220.00,422.00 3247.00,424.84 3247.00,424.84
             3295.38,430.01 3348.83,444.19 3390.00,470.69
             3407.07,481.68 3417.68,490.66 3432.00,505.00
             3445.66,518.69 3457.72,535.11 3467.14,552.00
             3494.78,601.55 3505.91,660.73 3506.00,717.00
             3506.00,717.00 3507.00,733.00 3507.00,733.00
             3507.00,733.00 3506.00,749.00 3506.00,749.00
             3506.00,749.00 3506.00,1116.00 3506.00,1116.00
             3506.00,1116.00 3506.00,1282.00 3506.00,1282.00
             3506.00,1282.00 3505.00,1297.00 3505.00,1297.00
             3505.00,1297.00 3505.00,1664.00 3505.00,1664.00
             3505.00,1664.00 3505.00,1831.00 3505.00,1831.00
             3505.00,1831.00 3504.00,1846.00 3504.00,1846.00
             3504.00,1846.00 3504.00,2373.00 3504.00,2373.00
             3504.00,2373.00 3503.34,2384.00 3503.34,2384.00
             3503.34,2384.00 3503.99,2396.00 3503.99,2396.00
             3503.99,2396.00 3503.00,2410.00 3503.00,2410.00
             3502.94,2451.59 3492.94,2499.75 3476.57,2538.00
             3467.57,2559.05 3455.64,2578.95 3441.58,2597.00
             3397.36,2653.72 3331.69,2684.72 3262.00,2696.41
             3249.09,2698.58 3225.67,2701.85 3213.00,2702.00
             3213.00,2702.00 3191.00,2703.00 3191.00,2703.00
             3191.00,2703.00 2452.00,2703.00 2452.00,2703.00
             2452.00,2703.00 2229.00,2703.00 2229.00,2703.00
             2229.00,2703.00 2117.00,2703.00 2117.00,2703.00
             2117.00,2703.00 2102.00,2704.00 2102.00,2704.00
             2102.00,2704.00 1426.00,2704.00 1426.00,2704.00
             1426.00,2704.00 1177.00,2704.00 1177.00,2704.00
             1177.00,2704.00 1052.00,2704.00 1052.00,2704.00
             1052.00,2704.00 1037.00,2703.00 1037.00,2703.00
             1037.00,2703.00 866.00,2703.00 866.00,2703.00
             866.00,2703.00 849.00,2702.00 849.00,2702.00
             849.00,2702.00 807.00,2702.00 807.00,2702.00
             807.00,2702.00 785.00,2701.00 785.00,2701.00
             785.00,2701.00 775.00,2700.09 775.00,2700.09
             775.00,2700.09 752.00,2698.17 752.00,2698.17
             693.43,2692.31 631.69,2675.75 588.00,2633.96
             572.69,2619.32 560.88,2605.07 549.81,2587.00
             535.18,2563.12 524.71,2536.87 517.00,2510.00
             511.86,2492.08 502.03,2447.64 502.00,2430.00
             502.00,2430.00 502.00,1876.00 502.00,1876.00
             502.00,1876.00 503.00,1859.00 503.00,1859.00
             503.00,1859.00 503.00,1565.00 503.00,1565.00
             503.00,1565.00 503.00,1399.00 503.00,1399.00
             503.00,1399.00 503.00,1315.00 503.00,1315.00
             503.00,1315.00 504.00,1300.00 504.00,1300.00
             504.00,1300.00 504.00,758.00 504.00,758.00
             504.03,739.67 508.68,711.63 511.58,693.00
             524.22,611.58 554.35,535.21 626.00,488.34
             671.54,458.56 731.39,444.57 785.00,438.84
             806.93,436.49 828.94,434.25 851.00,434.00
             851.00,434.00 866.00,433.00 866.00,433.00
             866.00,433.00 900.00,433.00 900.00,433.00
             900.00,433.00 917.00,432.00 917.00,432.00
             917.00,432.00 1081.00,432.00 1081.00,432.00
             1081.00,432.00 1096.00,431.00 1096.00,431.00
             1096.00,431.00 1273.00,431.00 1273.00,431.00
             1273.00,431.00 1288.00,430.00 1288.00,430.00
             1288.00,430.00 1465.00,430.00 1465.00,430.00
             1465.00,430.00 1480.00,429.00 1480.00,429.00
             1480.00,429.00 1657.00,429.00 1657.00,429.00
             1657.00,429.00 1672.00,428.00 1672.00,428.00
             1672.00,428.00 1848.00,428.00 1848.00,428.00
             1848.00,428.00 1863.00,427.00 1863.00,427.00
             1863.00,427.00 2037.00,427.00 2037.00,427.00
             2037.00,427.00 2052.00,426.00 2052.00,426.00
             2052.00,426.00 2227.00,426.00 2227.00,426.00
             2227.00,426.00 2242.00,425.00 2242.00,425.00
             2242.00,425.00 2416.00,425.00 2416.00,425.00
             2416.00,425.00 2431.00,424.00 2431.00,424.00
             2431.00,424.00 2605.00,424.00 2605.00,424.00
             2605.00,424.00 2620.00,423.00 2620.00,423.00
             2620.00,423.00 2794.00,423.00 2794.00,423.00
             2794.00,423.00 2809.00,422.00 2809.00,422.00
             2809.00,422.00 2929.00,422.00 2929.00,422.00
             2929.00,422.00 2991.00,421.11 2991.00,421.11
             2991.00,421.11 3034.00,421.11 3034.00,421.11 Z
           M 3268.00,530.42
           C 3248.48,526.11 3228.86,524.27 3209.00,522.91
             3209.00,522.91 3198.00,522.00 3198.00,522.00
             3198.00,522.00 2987.00,522.00 2987.00,522.00
             2987.00,522.00 2970.00,523.00 2970.00,523.00
             2970.00,523.00 2796.00,523.00 2796.00,523.00
             2796.00,523.00 2781.00,524.00 2781.00,524.00
             2781.00,524.00 2607.00,524.00 2607.00,524.00
             2607.00,524.00 2592.00,525.00 2592.00,525.00
             2592.00,525.00 2418.00,525.00 2418.00,525.00
             2418.00,525.00 2403.00,526.00 2403.00,526.00
             2403.00,526.00 2228.00,526.00 2228.00,526.00
             2228.00,526.00 2213.00,527.00 2213.00,527.00
             2213.00,527.00 2039.00,527.00 2039.00,527.00
             2039.00,527.00 2024.00,528.00 2024.00,528.00
             2024.00,528.00 1850.00,528.00 1850.00,528.00
             1850.00,528.00 1835.00,529.00 1835.00,529.00
             1835.00,529.00 1661.00,529.00 1661.00,529.00
             1661.00,529.00 1646.00,530.00 1646.00,530.00
             1646.00,530.00 1471.00,530.00 1471.00,530.00
             1471.00,530.00 1456.00,531.00 1456.00,531.00
             1456.00,531.00 1282.00,531.00 1282.00,531.00
             1282.00,531.00 1267.00,532.00 1267.00,532.00
             1267.00,532.00 1093.00,532.00 1093.00,532.00
             1093.00,532.00 1078.00,533.00 1078.00,533.00
             1078.00,533.00 901.00,533.00 901.00,533.00
             901.00,533.00 886.00,534.00 886.00,534.00
             886.00,534.00 867.00,534.00 867.00,534.00
             867.00,534.00 851.00,535.00 851.00,535.00
             831.65,535.03 798.51,538.53 779.00,541.43
             779.00,541.43 743.00,548.00 743.00,548.00
             747.77,553.72 765.89,565.39 773.00,570.42
             773.00,570.42 837.00,615.72 837.00,615.72
             837.00,615.72 1036.00,756.42 1036.00,756.42
             1036.00,756.42 1702.00,1227.42 1702.00,1227.42
             1702.00,1227.42 1858.00,1337.72 1858.00,1337.72
             1858.00,1337.72 1901.00,1367.95 1901.00,1367.95
             1940.61,1393.09 1983.32,1413.95 2029.00,1425.37
             2043.45,1428.99 2068.40,1433.83 2083.00,1434.00
             2083.00,1434.00 2111.00,1434.00 2111.00,1434.00
             2128.99,1433.97 2158.02,1427.74 2175.00,1421.56
             2194.95,1414.31 2216.75,1402.90 2234.00,1390.57
             2234.00,1390.57 2257.00,1372.57 2257.00,1372.57
             2257.00,1372.57 2269.00,1362.24 2269.00,1362.24
             2269.00,1362.24 2281.00,1353.99 2281.00,1353.99
             2281.00,1353.99 2302.00,1338.12 2302.00,1338.12
             2302.00,1338.12 2360.00,1292.65 2360.00,1292.65
             2360.00,1292.65 2482.00,1195.80 2482.00,1195.80
             2482.00,1195.80 2627.00,1079.80 2627.00,1079.80
             2627.00,1079.80 2850.00,900.61 2850.00,900.61
             2850.00,900.61 3012.00,770.20 3012.00,770.20
             3012.00,770.20 3167.00,645.00 3167.00,645.00
             3167.00,645.00 3259.00,570.61 3259.00,570.61
             3259.00,570.61 3284.00,550.40 3284.00,550.40
             3288.61,546.71 3294.25,543.33 3297.00,538.00
             3297.00,538.00 3268.00,530.42 3268.00,530.42 Z
           M 3347.00,629.00
           C 3347.00,629.00 3281.00,682.39 3281.00,682.39
             3281.00,682.39 3098.00,830.20 3098.00,830.20
             3098.00,830.20 2528.00,1288.00 2528.00,1288.00
             2462.98,1340.02 2398.06,1392.66 2331.00,1442.01
             2331.00,1442.01 2298.00,1468.58 2298.00,1468.58
             2271.10,1488.08 2245.12,1502.84 2214.00,1514.58
             2186.55,1524.93 2156.26,1531.95 2127.00,1534.09
             2127.00,1534.09 2115.00,1535.00 2115.00,1535.00
             2115.00,1535.00 2079.00,1535.00 2079.00,1535.00
             2063.60,1534.82 2040.40,1530.78 2025.00,1527.80
             1962.92,1515.82 1904.42,1488.85 1851.00,1455.58
             1851.00,1455.58 1782.00,1407.42 1782.00,1407.42
             1782.00,1407.42 1634.00,1302.72 1634.00,1302.72
             1634.00,1302.72 1365.00,1112.42 1365.00,1112.42
             1365.00,1112.42 955.00,822.58 955.00,822.58
             955.00,822.58 750.00,677.58 750.00,677.58
             750.00,677.58 684.00,630.86 684.00,630.86
             676.44,625.45 653.99,608.68 647.00,606.00
             640.19,618.18 634.76,626.71 629.45,640.00
             619.80,664.12 613.44,693.27 609.73,719.00
             609.73,719.00 605.00,761.00 605.00,761.00
             605.00,761.00 605.00,886.00 605.00,886.00
             605.00,886.00 605.00,1161.00 605.00,1161.00
             605.00,1161.00 605.00,1299.00 605.00,1299.00
             605.00,1299.00 604.00,1314.00 604.00,1314.00
             604.00,1314.00 604.00,1688.00 604.00,1688.00
             604.00,1688.00 604.00,1858.00 604.00,1858.00
             604.00,1858.00 603.00,1873.00 603.00,1873.00
             603.00,1873.00 603.00,2422.00 603.00,2422.00
             603.02,2436.41 609.01,2461.54 612.63,2476.00
             619.33,2502.79 631.55,2532.32 650.17,2553.00
             669.55,2574.53 696.37,2585.36 724.00,2591.65
             741.81,2595.70 759.82,2597.82 778.00,2599.09
             778.00,2599.09 788.00,2600.00 788.00,2600.00
             788.00,2600.00 808.00,2601.00 808.00,2601.00
             808.00,2601.00 844.00,2601.00 844.00,2601.00
             844.00,2601.00 859.00,2602.00 859.00,2602.00
             859.00,2602.00 1017.00,2602.00 1017.00,2602.00
             1017.00,2602.00 1032.00,2603.00 1032.00,2603.00
             1032.00,2603.00 1764.00,2603.00 1764.00,2603.00
             1764.00,2603.00 2034.00,2603.00 2034.00,2603.00
             2034.00,2603.00 2170.00,2603.00 2170.00,2603.00
             2170.00,2603.00 2185.00,2602.00 2185.00,2602.00
             2185.00,2602.00 2854.00,2602.00 2854.00,2602.00
             2854.00,2602.00 3124.00,2602.00 3124.00,2602.00
             3185.87,2602.00 3249.66,2605.51 3307.00,2577.74
             3322.08,2570.44 3338.02,2559.69 3349.99,2547.96
             3380.43,2518.12 3395.20,2475.49 3400.15,2434.00
             3400.15,2434.00 3402.04,2415.00 3402.04,2415.00
             3402.04,2415.00 3402.04,2404.00 3402.04,2404.00
             3402.04,2404.00 3403.00,2392.00 3403.00,2392.00
             3403.00,2392.00 3403.00,2017.00 3403.00,2017.00
             3403.00,2017.00 3403.00,1847.00 3403.00,1847.00
             3403.00,1847.00 3404.00,1832.00 3404.00,1832.00
             3404.00,1832.00 3404.00,1300.00 3404.00,1300.00
             3404.00,1300.00 3405.00,1283.00 3405.00,1283.00
             3405.00,1283.00 3405.00,859.00 3405.00,859.00
             3405.00,859.00 3405.00,748.00 3405.00,748.00
             3405.00,748.00 3406.00,732.00 3406.00,732.00
             3406.00,732.00 3405.00,717.00 3405.00,717.00
             3404.97,696.95 3402.90,675.62 3398.58,656.00
             3393.26,631.91 3389.39,624.81 3380.00,603.00
             3380.00,603.00 3347.00,629.00 3347.00,629.00 Z" />
</svg>
